<svg id="图层_1" data-name="图层 1" xmlns="http://www.w3.org/2000/svg" viewBox="0 0 66 66"><defs><style>.cls-1{fill:#fff;fill-opacity:0;}.cls-2{fill:#26a40f;fill-rule:evenodd;}</style></defs><rect id="矩形" class="cls-1" width="66" height="66"/><path id="形状结合" class="cls-2" d="M54.69,54.13a1,1,0,0,1,1,1V58a1,1,0,0,1-1,1H12a1,1,0,0,1-1-1V55.13a1,1,0,0,1,1-1ZM32.94,7A17.77,17.77,0,0,1,50.81,24.68,17.56,17.56,0,0,1,44.64,38h.07L32.94,49.25,21.17,38h.07a17.57,17.57,0,0,1-6.18-13.36A17.78,17.78,0,0,1,32.94,7Z" transform="translate(0 0)"/></svg>