<svg id="图层_1" data-name="图层 1" xmlns="http://www.w3.org/2000/svg" viewBox="0 0 66 66"><defs><style>.cls-1{fill:#fff;fill-opacity:0;}.cls-2{fill:#0f59a4;fill-rule:evenodd;}</style></defs><rect id="矩形" class="cls-1" width="66" height="66"/><path id="形状结合" class="cls-2" d="M55,14a4,4,0,0,1,4,4V49a4,4,0,0,1-4,4H11a4,4,0,0,1-4-4V18a4,4,0,0,1,4-4ZM50.69,40H15.31a1,1,0,0,0-1,1h0v2.88a1,1,0,0,0,1,1H50.69a1,1,0,0,0,1-1h0V41a1,1,0,0,0-1-1ZM33,22.13a5.69,5.69,0,1,0,5.69,5.68A5.68,5.68,0,0,0,33,22.13Z" transform="translate(0 0)"/></svg>