<svg id="图层_1" data-name="图层 1" xmlns="http://www.w3.org/2000/svg" viewBox="0 0 90 90"><defs><style>.cls-1{fill:#79bc51;opacity:0.15;isolation:isolate;}.cls-2{fill:#309b39;}</style></defs><circle id="Oval" class="cls-1" cx="45" cy="45" r="45"/><path id="椭圆形-2" class="cls-2" d="M32.71,55A18.57,18.57,0,0,1,45,22.58h.38a18.57,18.57,0,0,1,12,32.34L45,67.42Zm12-28.44a14.57,14.57,0,0,0-9.27,25.49l.09.09L45,61.74l9.56-9.67.08-.08a14.57,14.57,0,0,0-9.3-25.41Z"/><path id="椭圆形-2-2" class="cls-2" d="M45,48.5A8.5,8.5,0,1,0,36.5,40,8.51,8.51,0,0,0,45,48.5Zm0-4A4.5,4.5,0,1,1,49.5,40,4.49,4.49,0,0,1,45,44.5Z"/></svg>