<svg id="图层_1" data-name="图层 1" xmlns="http://www.w3.org/2000/svg" viewBox="0 0 90 90"><defs><style>.cls-1{fill:#79bc51;opacity:0.15;isolation:isolate;}.cls-2{fill:#309b39;}</style></defs><circle id="Oval" class="cls-1" cx="45" cy="45" r="45"/><path class="cls-2" d="M64.71,36.4a7.08,7.08,0,0,0,2-5.65,8.44,8.44,0,0,0-8.23-7.6,7,7,0,0,0-5,2l-1.65,1.66L49.28,24.3l-2.82,2.83L43.56,30l-2.82,2.83,2.83,2.82.29.3-1.51,1.51L25.45,54.41l-1,1-.15,1.41L23.77,62l-.5,4.9,4.9-.51,5.12-.54,1.41-.14,1-1L52.61,47.72l1.5-1.51.29.3,2.83,2.82,2.83-2.83L63,43.6l2.82-2.83-2.72-2.72ZM32.87,61.83l-5.12.53.53-5.12,16.9-16.93,4.59,4.59Zm29-28.26L57.46,38l-.06,0,2.73,2.72-2.9,2.9L46.39,32.85l2.9-2.9,2.54,2.54.05-.06L56.3,28a3,3,0,0,1,2.17-.85,4.29,4.29,0,0,1,3,1.29h0C63,30,63.17,32.28,61.88,33.57Z"/></svg>