<svg id="图层_1" data-name="图层 1" xmlns="http://www.w3.org/2000/svg" viewBox="0 0 90 90"><defs><style>.cls-1{fill:#79bc51;opacity:0.15;isolation:isolate;}.cls-2{fill:#309b39;}</style></defs><circle id="Oval" class="cls-1" cx="45" cy="45" r="45"/><path class="cls-2" d="M69.13,42.9a10.4,10.4,0,0,0-6.37-9.81v0l-2.6-1L46.33,27l-1.42-.52L43.5,27,29.74,32.14,28,32.81a10.27,10.27,0,0,0-7.09,10,10.39,10.39,0,0,0,6.25,9.76v3l1.24,1.19c.28.28,7.09,6.71,16.83,6.71,5.77,0,11.27-2.2,16.36-6.55L63,55.78l0-1.88V52.64A10.41,10.41,0,0,0,69.13,42.9Zm-44.33,0a6.85,6.85,0,0,1,2.32-5.25V48.1A6.84,6.84,0,0,1,24.8,42.85ZM45.19,59.52c-8.23,0-14-5.58-14-5.58v-18l13.76-5.17,13.83,5.13.17,18.06C54,58.13,49.3,59.52,45.19,59.52ZM62.91,48.13l-.1-10.54a7.11,7.11,0,0,1,.1,10.54Z" transform="translate(0)"/></svg>