<svg id="图层_1" data-name="图层 1" xmlns="http://www.w3.org/2000/svg" viewBox="0 0 90 89.11"><defs><style>.cls-1{fill:#0f59a4;}.cls-2{fill:#d9f5ff;}</style></defs><title>国务院常务会议 copy 4</title><path id="矩形" class="cls-1" d="M45,.36c24.84,0,45,20,45,44.55S69.84,89.47,45,89.47,0,69.5,0,44.91,20.16.36,45,.36Z" transform="translate(0 -0.36)"/><path id="形状" class="cls-2" d="M74.34,49.59A9,9,0,0,1,71.14,48a7.52,7.52,0,0,1-2.47-4H64.8V43l5.58-2.58V36.18c-5.58-1.69-7.65-3.74-8.19-7V25.84h-4.5v1.78H45V64.16H73V60.59H68.4v-4.9l5.94-2.08ZM45,31.1H58.86c.63,3.21,4.6,6.24,7.62,7.18L61.2,40.46v3.68H45ZM64.8,52.84v7.57H45V47.94H66.6a12.35,12.35,0,0,0,3.53,3.66Z" transform="translate(0 -0.36)"/><path id="形状-2" data-name="形状" class="cls-2" d="M16.2,49.59A9,9,0,0,0,19.4,48a7.52,7.52,0,0,0,2.47-4h3.87V43l-5.58-2.58V36.18c5.58-1.69,7.65-3.74,8.19-7V25.84h4.5v1.78H45.54V64.16h-28V60.59h4.55v-4.9L16.2,53.62ZM45.54,31.1H31.68c-.63,3.21-4.6,6.24-7.62,7.18l5.28,2.18v3.68h16.2ZM25.74,52.84v7.57h19.8V47.94H23.94a12.35,12.35,0,0,1-3.53,3.66Z" transform="translate(0 -0.36)"/></svg>