<svg id="图层_1" data-name="图层 1" xmlns="http://www.w3.org/2000/svg" viewBox="0 0 66 66"><defs><style>.cls-1{fill:#fff;}.cls-1,.cls-2{fill-opacity:0;}.cls-3{fill:#a42d0f;}</style></defs><rect id="矩形" class="cls-1" width="66" height="66"/><g id="shield盾牌"><rect id="矩形-2" data-name="矩形" class="cls-2" width="66" height="66"/><path id="形状" class="cls-3" d="M32.94,6.05l21.55,6.72a2.46,2.46,0,0,1,1.8,2.33V33q0,14.93-23.65,27Q9,47.91,9,33V15.09a2.46,2.46,0,0,1,1.8-2.32L32.35,6.05A1,1,0,0,1,32.94,6.05Zm0,13.43a1,1,0,0,0-1.34.45h0L29,25.14a1,1,0,0,1-.75.54h0l-5.74.84a1,1,0,0,0-.57.29,1,1,0,0,0,0,1.41h0l4.15,4.05a1,1,0,0,1,.29.89h0l-1,5.72a1,1,0,0,0,.1.63,1,1,0,0,0,1.35.42h0L32,37.23a1,1,0,0,1,.93,0h0l5.14,2.7a1,1,0,0,0,.63.1,1,1,0,0,0,.82-1.15h0l-1-5.72a1,1,0,0,1,.29-.89h0L43,28.22a1,1,0,0,0,.29-.57,1,1,0,0,0-.84-1.13h0l-5.74-.84a1,1,0,0,1-.76-.54h0l-2.56-5.21A1.05,1.05,0,0,0,32.93,19.48Z" transform="translate(0 0)"/></g></svg>