<svg id="图层_1" data-name="图层 1" xmlns="http://www.w3.org/2000/svg" viewBox="0 0 90 90"><defs><style>.cls-1{fill:#0f59a4;}.cls-2{fill:#d9f5ff;}</style></defs><title>投诉与建议 copy</title><path id="矩形" class="cls-1" d="M45,0h0A45,45,0,0,1,90,45h0A45,45,0,0,1,45,90h0A45,45,0,0,1,0,45H0A45,45,0,0,1,45,0Z"/><path id="形状" class="cls-2" d="M69.32,26.1H35.12v8.46h3.6V29.73h27V54.31l-6.48-5.67H53.1v3.61h4.7l8.22,7,3.3-1.7Zm-20,29.7H29L22.5,62.19V37.8H36.9V34.2h-18V65.75l3.24,1.53,8.37-7.87H53.1v-9H49.5v5.4Zm.13-18v9h3.6V34.2H40.5v3.6Zm0,9v3.6h3.6V46.8Zm-9-9V34.2H36.9v3.6Z"/></svg>