<svg id="图层_1" data-name="图层 1" xmlns="http://www.w3.org/2000/svg" viewBox="0 0 90 90"><defs><style>.cls-1{fill:#79bc51;opacity:0.15;isolation:isolate;}.cls-2{fill:#309b39;}</style></defs><circle id="Oval" class="cls-1" cx="45" cy="45" r="45"/><path class="cls-2" d="M45,27.36h0a.19.19,0,0,1,.17.1l.57,1.07L63.53,62.35a.21.21,0,0,1,0,.19.23.23,0,0,1-.17.1H26.65a.16.16,0,0,1-.09,0,.19.19,0,0,1-.09-.26L44.83,27.47a.18.18,0,0,1,.17-.11m0-4a4.23,4.23,0,0,0-3.64,2.11l0,.06,0,.07L22.93,60.48l0,0v0a4.21,4.21,0,0,0,1.86,5.65,4.24,4.24,0,0,0,1.89.45H63.42A4.19,4.19,0,0,0,67,64.53l0,0,0,0a4.23,4.23,0,0,0,0-4L49.29,26.67l-.58-1.09,0-.06,0-.05a4.2,4.2,0,0,0-3.51-2.1H45Z"/><rect class="cls-2" x="42.81" y="53.64" width="4" height="4"/><rect class="cls-2" x="42.81" y="39.34" width="4" height="12.1"/></svg>