<svg id="图层_1" data-name="图层 1" xmlns="http://www.w3.org/2000/svg" viewBox="0 0 66 66"><defs><style>.cls-1{fill:#fff;}.cls-2{fill:#a4830f;fill-rule:evenodd;}</style></defs><rect id="矩形" class="cls-1" width="66" height="66"/><path id="形状结合" class="cls-2" d="M35,7.23l19,11a4,4,0,0,1,2,3.46V43.58a4,4,0,0,1-2,3.47L35,58a4,4,0,0,1-4,0l-19-11a4,4,0,0,1-2-3.47V21.65a4,4,0,0,1,2-3.46l19-11A4,4,0,0,1,35,7.23ZM32.13,21.11h-.41L28.59,44.85a10.43,10.43,0,0,0,3.46,0h0Zm.88-.88L33,45a10.52,10.52,0,0,0,3.5-1.6l-.46-3.19s9-3.1,10.88-10.58-8.59-8.31-12.7-7c0,0,7.73-1.23,9.51,4.53S36,38.54,36,38.54l-2.74-18.3ZM25.9,37.93l-1,1.18L23.28,39l1,.76-.69,1.46,1.52-.62,1.32.83-.07-1.32,1.38-.63-1.59-.27Zm-5.83-3.54-.77,1.18L18,35.5l.77.76-.55,1.46,1.21-.63,1.05.84-.05-1.32L21.51,36l-1.28-.27ZM25.73,30l-.52,2-1.93.79,1.49.42-.08,2.14,1.44-1.57L28,34l-.73-1.57L28.59,31l-2,.51Zm-3-1.77-.29,1-1,.36.73.24-.07,1.08.73-.77,1,.2-.34-.81.65-.73-1,.22Zm4.1-1.77-.28.33-.66.06.44.13-.15.37.54-.22.59.13-.14-.3.49-.21h-.64Z" transform="translate(0 0)"/></svg>