<svg id="图层_1" data-name="图层 1" xmlns="http://www.w3.org/2000/svg" viewBox="0 0 66 66"><defs><style>.cls-1{fill:#fff;fill-opacity:0;}.cls-2{fill:none;}.cls-3{fill:#26a40f;fill-rule:evenodd;}</style></defs><rect id="矩形" class="cls-1" width="66" height="66"/><g id="device-fill"><polygon id="路径" class="cls-2" points="0 0 66 0 66 66 0 66 0 0"/><path id="形状结合" class="cls-3" d="M50.47,7a4,4,0,0,1,4,4V55a4,4,0,0,1-4,4H16a4,4,0,0,1-4-4V11a4,4,0,0,1,4-4ZM46.53,43.4H19.93a1,1,0,0,0-1,1h0v3.2a1,1,0,0,0,1,1h26.6a1,1,0,0,0,1-1h0V44.4a1,1,0,0,0-1-1Zm0-31.2h-8.4a1,1,0,0,0-1,1h0v13a1,1,0,0,0,1.84.56h0l2.53-3.83a.93.93,0,0,1,.28-.28,1,1,0,0,1,1.39.28h0l2.53,3.83a1,1,0,0,0,.83.44,1,1,0,0,0,1-1h0v-13a1,1,0,0,0-1-1Z" transform="translate(0 0)"/></g></svg>